
<svg
   xmlns="http://www.w3.org/2000/svg"
   fill="#000000"
   height="24"
   viewBox="0 0 24 24"
   width="24">
  <path
     d="M 2.005,8 2,18 c 0,1.1 0.9,2 2,2 l 16,0 c 1.1,0 2,-0.9 2,-2 L 22,8 z"
     id="bottom" />
  <path
     d="M0 0h24v24H0z"
     fill="none"
     id="border" />
  <path
     id="top"
     d="M 17.999,4 19.9995,8 16.99875,8 14.99825,4 12.997749,4 14.99825,8 11.997499,8 9.9969992,4 7.9964991,4 9.9969992,8 6.9962491,8 4.9957489,4 3.9954989,4 C 2.8952238,4 2.0050013,4.9 2.0050013,6 L 2,8 22,8 22,4 z" />
</svg>
